<svg width="21" height="21" viewBox="0 0 21 21" fill="none" xmlns="http://www.w3.org/2000/svg">
<g clip-path="url(#clip0)">
<path fill-rule="evenodd" clip-rule="evenodd" d="M19.7929 -0.207107C20.1834 -0.597631 20.8166 -0.597631 21.2071 -0.207107C21.5976 0.183417 21.5976 0.816582 21.2071 1.20711L11.9142 10.5L21.2071 19.7929C21.5976 20.1834 21.5976 20.8166 21.2071 21.2071C20.8166 21.5976 20.1834 21.5976 19.7929 21.2071L10.5 11.9142L1.20711 21.2071C0.816582 21.5976 0.183419 21.5976 -0.207107 21.2071C-0.597631 20.8166 -0.597631 20.1834 -0.207107 19.7929L9.08579 10.5L-0.207106 1.20711C-0.59763 0.816582 -0.59763 0.183417 -0.207106 -0.207107C0.183418 -0.597631 0.816583 -0.597631 1.20711 -0.207107L10.5 9.08579L19.7929 -0.207107Z" fill="#BDBDBD"/>
</g>
<defs>
<clipPath id="clip0">
<rect width="21" height="21" fill="white"/>
</clipPath>
</defs>
</svg>
