<svg width="99" height="24" viewBox="0 0 99 24" fill="none" xmlns="http://www.w3.org/2000/svg">
<g clip-path="url(#clip0)">
<path d="M77.378 7.77393C76.9645 7.77393 76.6136 7.91813 76.3252 8.20659C76.0368 8.49504 75.8926 8.84103 75.8926 9.24505V15.4469C75.8926 15.8609 76.0368 16.2116 76.3252 16.5C76.6137 16.7884 76.9645 16.9326 77.378 16.9326C77.7912 16.9326 78.14 16.7884 78.4239 16.5C78.7072 16.2116 78.8493 15.861 78.8493 15.4469V9.24505C78.8493 8.84147 78.7051 8.49504 78.4167 8.20659C78.1282 7.91813 77.7819 7.77393 77.378 7.77393H77.378ZM89.3205 2.20654L90.3445 0.317434C90.4118 0.192368 90.3878 0.0964627 90.2726 0.0290255C90.1475 -0.029125 90.0513 0.000384188 89.9842 0.115817L88.9458 2.02003C88.0321 1.61645 87.0657 1.4137 86.0466 1.4137C85.0276 1.4137 84.0609 1.6161 83.1475 2.02003L82.1091 0.115817C82.0416 0.000818146 81.9455 -0.0283873 81.8207 0.0290255C81.7052 0.096723 81.6812 0.192368 81.7487 0.317434L82.7729 2.20654C81.7344 2.7361 80.9074 3.47362 80.2921 4.42069C79.6767 5.36828 79.3689 6.40379 79.3689 7.52905H92.7099C92.7099 6.40405 92.4021 5.3685 91.7867 4.42069C91.1714 3.47362 90.349 2.73606 89.3205 2.20654ZM83.3999 4.95428C83.2891 5.06529 83.1569 5.12049 83.0031 5.12049C82.8491 5.12049 82.7195 5.06525 82.6138 4.95428C82.5081 4.8438 82.4552 4.71205 82.4552 4.55778C82.4552 4.40402 82.5081 4.27201 82.6138 4.16127C82.7195 4.05078 82.8494 3.99549 83.0031 3.99549C83.1568 3.99549 83.2895 4.05074 83.3999 4.16127C83.5104 4.27227 83.5659 4.40402 83.5659 4.55778C83.5656 4.71183 83.5101 4.84419 83.3999 4.95428ZM89.479 4.95428C89.3732 5.06529 89.2432 5.12049 89.0898 5.12049C88.9357 5.12049 88.8035 5.06525 88.6929 4.95428C88.5823 4.8438 88.527 4.71205 88.527 4.55778C88.527 4.40402 88.5822 4.27201 88.6929 4.16127C88.8035 4.05078 88.9357 3.99549 89.0898 3.99549C89.2435 3.99549 89.3732 4.05074 89.479 4.16127C89.5848 4.27227 89.6376 4.40402 89.6376 4.55778C89.6376 4.71183 89.5848 4.84419 89.479 4.95428ZM79.4261 17.6536C79.4261 18.0963 79.5799 18.4711 79.8874 18.7786C80.1952 19.0862 80.57 19.2399 81.0124 19.2399H82.0798L82.0944 22.5143C82.0944 22.9278 82.2386 23.279 82.5271 23.5674C82.8155 23.8558 83.1618 24 83.5655 24C83.9788 24 84.3299 23.8558 84.6183 23.5674C84.9068 23.2789 85.051 22.9279 85.051 22.5143V19.2402H87.0413V22.5143C87.0413 22.9278 87.1854 23.279 87.4739 23.5674C87.7624 23.8558 88.1132 24 88.5267 24C88.94 24 89.2911 23.8558 89.5795 23.5674C89.868 23.2789 90.0122 22.9279 90.0122 22.5143V19.2402H91.0939C91.5266 19.2402 91.8965 19.0865 92.2046 18.7789C92.5121 18.4714 92.6659 18.0966 92.6659 17.654V8.04776H79.4258V17.6536H79.4261ZM94.7147 7.77393C94.3111 7.77393 93.9647 7.91601 93.6762 8.19938C93.3878 8.48328 93.2436 8.83201 93.2436 9.24496V15.4468C93.2436 15.8608 93.3878 16.2115 93.6762 16.4999C93.9647 16.7883 94.311 16.9325 94.7147 16.9325C95.128 16.9325 95.479 16.7883 95.7675 16.4999C96.0559 16.2114 96.2002 15.8609 96.2002 15.4468V9.24505C96.2002 8.83205 96.056 8.48337 95.7675 8.19947C95.479 7.91609 95.128 7.77402 94.7147 7.77402V7.77393Z" fill="#BDBDBD"/>
</g>
<g clip-path="url(#clip1)">
<path fill-rule="evenodd" clip-rule="evenodd" d="M44.8818 6.19273C45.635 6.18181 46.3118 6.3783 46.9777 6.61845C47.3816 6.76036 47.7855 6.91318 48.2112 7.01142C48.9644 7.19699 49.6957 7.1315 50.4162 6.84768C50.9292 6.6512 51.4423 6.44379 51.9772 6.32372C53.5927 5.95258 55.0445 6.32372 56.3544 7.31707C56.7147 7.58996 57.0312 7.89561 57.326 8.234C57.4351 8.36499 57.4351 8.39774 57.2823 8.49599C55.9287 9.32559 55.1428 10.5263 55.0009 12.0982C54.8699 13.5719 55.3284 14.86 56.3435 15.9297C56.7911 16.3991 57.315 16.7484 57.9045 16.9995C58.0682 17.065 58.0792 17.0868 58.0028 17.2505C57.3369 18.7788 56.4636 20.1869 55.372 21.4423C55.0009 21.868 54.5752 22.2609 54.0621 22.5338C53.2652 22.9705 52.4575 22.9814 51.6279 22.6321C51.2895 22.4902 50.962 22.3155 50.6127 22.1955C49.4774 21.8352 48.3531 21.8789 47.2506 22.3374C46.9558 22.4574 46.6829 22.5884 46.3882 22.6976C45.3185 23.0906 44.3579 22.8504 43.4846 22.1627C42.9497 21.737 42.5131 21.2349 42.1201 20.6891C41.1922 19.4665 40.4609 18.1129 39.9697 16.6393C39.6204 15.5804 39.3911 14.5107 39.3365 13.3972C39.271 12.1856 39.3693 10.9739 39.8496 9.84956C40.6137 8.08118 41.9236 6.88043 43.7902 6.33463C44.1505 6.22548 44.5325 6.18181 44.8818 6.19273ZM52.8614 1.58621C52.8504 2.63414 52.523 3.50741 51.999 4.30428C51.3986 5.2103 50.569 5.84342 49.532 6.18181C49.2154 6.28006 48.888 6.34555 48.5496 6.34555C48.4186 6.34555 48.364 6.29097 48.3531 6.15998C48.2658 5.39587 48.4404 4.68633 48.757 4.00955C49.401 2.65597 50.4489 1.7827 51.8353 1.28057C52.1082 1.18232 52.4029 1.12775 52.6976 1.08408C52.8177 1.06225 52.8504 1.14958 52.8504 1.2369C52.8504 1.3679 52.8723 1.5098 52.8614 1.58621Z" fill="#BDBDBD"/>
</g>
<g clip-path="url(#clip2)">
<path d="M11.0479 2.18223L23.3143 0.342865V11.2619H11.0479V2.18223ZM0 3.77557L9.40772 2.39312V11.3908H0V3.77557ZM11.0479 21.8178L23.3143 23.6572V13.0193H11.0479V21.8178ZM0 20.2244L9.40772 21.6069V13.0193H0V20.2244Z" fill="#BDBDBD"/>
</g>
<defs>
<clipPath id="clip0">
<rect x="74.0469" width="24" height="24" fill="white"/>
</clipPath>
<clipPath id="clip1">
<rect x="39.3145" width="18.7317" height="24" fill="white"/>
</clipPath>
<clipPath id="clip2">
<rect width="23.3143" height="24" fill="white"/>
</clipPath>
</defs>
</svg>
