<svg width="99" height="24" viewBox="0 0 99 24" fill="none" xmlns="http://www.w3.org/2000/svg">
<g clip-path="url(#clip0)">
<path d="M77.378 7.7739C76.9645 7.7739 76.6136 7.9181 76.3252 8.20656C76.0368 8.49501 75.8926 8.841 75.8926 9.24502V15.4469C75.8926 15.8609 76.0368 16.2115 76.3252 16.4999C76.6137 16.7883 76.9645 16.9326 77.378 16.9326C77.7912 16.9326 78.14 16.7884 78.4239 16.4999C78.7072 16.2115 78.8493 15.8609 78.8493 15.4469V9.24502C78.8493 8.84144 78.7051 8.49501 78.4167 8.20656C78.1282 7.9181 77.7819 7.7739 77.378 7.7739H77.378ZM89.3205 2.20651L90.3445 0.317404C90.4118 0.192337 90.3878 0.0964321 90.2726 0.028995C90.1475 -0.0291555 90.0513 0.00035367 89.9842 0.115787L88.9458 2.02C88.0321 1.61642 87.0657 1.41367 86.0466 1.41367C85.0276 1.41367 84.0609 1.61607 83.1475 2.02L82.1091 0.115787C82.0416 0.000787629 81.9455 -0.0284178 81.8207 0.028995C81.7052 0.0966925 81.6812 0.192337 81.7487 0.317404L82.7729 2.20651C81.7344 2.73607 80.9074 3.47359 80.2921 4.42066C79.6767 5.36825 79.3689 6.40376 79.3689 7.52902H92.7099C92.7099 6.40402 92.4021 5.36847 91.7867 4.42066C91.1714 3.47359 90.349 2.73603 89.3205 2.20651ZM83.3999 4.95425C83.2891 5.06526 83.1569 5.12046 83.0031 5.12046C82.8491 5.12046 82.7195 5.06522 82.6138 4.95425C82.5081 4.84377 82.4552 4.71202 82.4552 4.55774C82.4552 4.40399 82.5081 4.27198 82.6138 4.16124C82.7195 4.05075 82.8494 3.99546 83.0031 3.99546C83.1568 3.99546 83.2895 4.05071 83.3999 4.16124C83.5104 4.27224 83.5659 4.40399 83.5659 4.55774C83.5656 4.7118 83.5101 4.84416 83.3999 4.95425ZM89.479 4.95425C89.3732 5.06526 89.2432 5.12046 89.0898 5.12046C88.9357 5.12046 88.8035 5.06522 88.6929 4.95425C88.5823 4.84377 88.527 4.71202 88.527 4.55774C88.527 4.40399 88.5822 4.27198 88.6929 4.16124C88.8035 4.05075 88.9357 3.99546 89.0898 3.99546C89.2435 3.99546 89.3732 4.05071 89.479 4.16124C89.5848 4.27224 89.6376 4.40399 89.6376 4.55774C89.6376 4.7118 89.5848 4.84416 89.479 4.95425ZM79.4261 17.6536C79.4261 18.0963 79.5799 18.4711 79.8874 18.7786C80.1952 19.0862 80.57 19.2399 81.0124 19.2399H82.0798L82.0944 22.5143C82.0944 22.9278 82.2386 23.2789 82.5271 23.5673C82.8155 23.8558 83.1618 24 83.5655 24C83.9788 24 84.3299 23.8558 84.6183 23.5673C84.9068 23.2789 85.051 22.9278 85.051 22.5143V19.2402H87.0413V22.5143C87.0413 22.9278 87.1854 23.2789 87.4739 23.5673C87.7624 23.8558 88.1132 24 88.5267 24C88.94 24 89.2911 23.8558 89.5795 23.5673C89.868 23.2789 90.0122 22.9278 90.0122 22.5143V19.2402H91.0939C91.5266 19.2402 91.8965 19.0864 92.2046 18.7789C92.5121 18.4714 92.6659 18.0966 92.6659 17.6539V8.04773H79.4258V17.6536H79.4261ZM94.7147 7.7739C94.3111 7.7739 93.9647 7.91598 93.6762 8.19935C93.3878 8.48325 93.2436 8.83198 93.2436 9.24493V15.4468C93.2436 15.8608 93.3878 16.2114 93.6762 16.4999C93.9647 16.7883 94.311 16.9325 94.7147 16.9325C95.128 16.9325 95.479 16.7883 95.7675 16.4999C96.0559 16.2114 96.2002 15.8608 96.2002 15.4468V9.24502C96.2002 8.83202 96.056 8.48333 95.7675 8.19944C95.479 7.91606 95.128 7.77399 94.7147 7.77399V7.7739Z" fill="#F1F9FF"/>
</g>
<g clip-path="url(#clip1)">
<path fill-rule="evenodd" clip-rule="evenodd" d="M44.8818 6.19285C45.635 6.18193 46.3118 6.37842 46.9777 6.61857C47.3816 6.76048 47.7855 6.9133 48.2112 7.01154C48.9644 7.19711 49.6957 7.13162 50.4162 6.8478C50.9292 6.65132 51.4423 6.44392 51.9772 6.32384C53.5927 5.9527 55.0445 6.32384 56.3544 7.31719C56.7147 7.59009 57.0312 7.89573 57.326 8.23413C57.4351 8.36512 57.4351 8.39786 57.2823 8.49611C55.9287 9.32572 55.1428 10.5265 55.0009 12.0984C54.8699 13.572 55.3284 14.8601 56.3435 15.9298C56.7911 16.3992 57.315 16.7485 57.9045 16.9996C58.0682 17.0651 58.0792 17.0869 58.0028 17.2507C57.3369 18.7789 56.4636 20.187 55.372 21.4424C55.0009 21.8681 54.5752 22.2611 54.0621 22.534C53.2652 22.9706 52.4575 22.9815 51.6279 22.6322C51.2895 22.4903 50.962 22.3157 50.6127 22.1956C49.4774 21.8354 48.3531 21.879 47.2506 22.3375C46.9558 22.4576 46.6829 22.5885 46.3882 22.6977C45.3185 23.0907 44.3579 22.8505 43.4846 22.1628C42.9497 21.7371 42.5131 21.235 42.1201 20.6892C41.1922 19.4666 40.4609 18.113 39.9697 16.6394C39.6204 15.5805 39.3911 14.5108 39.3365 13.3974C39.271 12.1857 39.3693 10.974 39.8496 9.84968C40.6137 8.0813 41.9236 6.88055 43.7902 6.33476C44.1505 6.2256 44.5325 6.18193 44.8818 6.19285ZM52.8614 1.58634C52.8504 2.63426 52.523 3.50754 51.999 4.3044C51.3986 5.21042 50.569 5.84354 49.532 6.18193C49.2154 6.28018 48.888 6.34567 48.5496 6.34567C48.4186 6.34567 48.364 6.29109 48.3531 6.1601C48.2658 5.39599 48.4404 4.68645 48.757 4.00967C49.401 2.65609 50.4489 1.78282 51.8353 1.28069C52.1082 1.18245 52.4029 1.12787 52.6976 1.0842C52.8177 1.06237 52.8504 1.1497 52.8504 1.23703C52.8504 1.36802 52.8723 1.50992 52.8614 1.58634Z" fill="#F1F9FF"/>
</g>
<g clip-path="url(#clip2)">
<path d="M11.0479 2.18214L23.3143 0.342773V11.2618H11.0479V2.18214ZM0 3.77548L9.40772 2.39302V11.3907H0V3.77548ZM11.0479 21.8177L23.3143 23.6571V13.0192H11.0479V21.8177ZM0 20.2244L9.40772 21.6068V13.0192H0V20.2244Z" fill="#F1F9FF"/>
</g>
<defs>
<clipPath id="clip0">
<rect x="74.0469" width="24" height="24" fill="white"/>
</clipPath>
<clipPath id="clip1">
<rect x="39.3145" width="18.7317" height="24" fill="white"/>
</clipPath>
<clipPath id="clip2">
<rect width="23.3143" height="24" fill="white"/>
</clipPath>
</defs>
</svg>
